PathFileType	4	(X/Y/Z)	/Users/itak/Documents/Research/Walk-IL/dataset/trc/00422_00012.trc
DataRate	CameraRate	NumFrames	NumMarkers	Units	OrigDataRate	OrigDataStartFrame	OrigNumFrames
100.000000	100.000000	4	53	mm	100.000000	455	521
Frame#	Time	RPSI			LPSI			L3			STRN			T10			C7			CLAV			RBAK			LBAK			LSHO			LUPA			LAEL			LAOL			LWTS			LWPS			LFRA			LIFD			LHPS			LHTS			RSHO			RUPA			RAEL			RAOL			RWTS			RWPS			RFRA			RIFD			RHTS			RHPS			RBHD			LFHD			RFHD			LBHD			LHIP			RHIP			RASI			LASI			LKNE			LTHI			LANK			LTIP			LTOE			LMT1			LMT5			LHEE			RKNE			RTHI			RANK			RTIP			RTOE			RMT1			RMT5			RHEE			
		X1	Y1	Z1	X2	Y2	Z2	X3	Y3	Z3	X4	Y4	Z4	X5	Y5	Z5	X6	Y6	Z6	X7	Y7	Z7	X8	Y8	Z8	X9	Y9	Z9	X10	Y10	Z10	X11	Y11	Z11	X12	Y12	Z12	X13	Y13	Z13	X14	Y14	Z14	X15	Y15	Z15	X16	Y16	Z16	X17	Y17	Z17	X18	Y18	Z18	X19	Y19	Z19	X20	Y20	Z20	X21	Y21	Z21	X22	Y22	Z22	X23	Y23	Z23	X24	Y24	Z24	X25	Y25	Z25	X26	Y26	Z26	X27	Y27	Z27	X28	Y28	Z28	X29	Y29	Z29	X30	Y30	Z30	X31	Y31	Z31	X32	Y32	Z32	X33	Y33	Z33	X34	Y34	Z34	X35	Y35	Z35	X36	Y36	Z36	X37	Y37	Z37	X38	Y38	Z38	X39	Y39	Z39	X40	Y40	Z40	X41	Y41	Z41	X42	Y42	Z42	X43	Y43	Z43	X44	Y44	Z44	X45	Y45	Z45	X46	Y46	Z46	X47	Y47	Z47	X48	Y48	Z48	X49	Y49	Z49	X50	Y50	Z50	X51	Y51	Z51	X52	Y52	Z52	X53	Y53	Z53	

456	4.55	134.1315765380859	984.4232788085938	725.4757080078125	265.3204956054688	976.2523193359375	726.944091796875	199.1826324462891	1054.347900390625	723.3590087890625	185.3870239257812	1219.594604492188	955.92626953125	207.0001373291016	1158.021606445312	710.6890258789062	218.1935729980469	1408.190307617188	740.7603149414062	192.5524139404297	1335.556762695312	899.7251586914062	148.8701171875	1262.894409179688	695.0111694335938	321.1897583007812	1368.55029296875	741.3251953125	359.0541381835938	1388.688232421875	832.4049072265625	433.1182250976562	1273.359741210938	833.8258056640625	454.9742736816406	1082.052124023438	891.3460693359375	407.1198425292969	1050.810668945312	827.66845703125	390.14111328125	893.2001953125	1019.917114257812	462.1818237304688	870.12646484375	986.6430053710938	459.8260192871094	984.221923828125	931.5633544921875	389.711669921875	718.2093505859375	1058.583251953125	449.7490539550781	790.1866455078125	1018.3046875	404.8297729492188	803.2490844726562	1061.471069335938	54.20532608032227	1393.739501953125	783.4628295898438	-5.908367156982422	1328.473388671875	769.3806762695312	-64.91011047363281	1073.553955078125	818.2820434570312	26.83817863464355	1053.356079101562	801.33349609375	-56.25975036621094	888.497802734375	988.6426391601562	-117.4301986694336	873.81787109375	947.4089965820312	-85.68534851074219	1016.409729003906	855.9963989257812	-70.85968780517578	718.1669921875	1019.272033691406	-83.01467132568359	789.779541015625	1026.213745117188	-123.4843139648438	787.6441650390625	969.5150146484375	136.5576324462891	1589.562133789062	748.835693359375	258.6607666015625	1620.11328125	904.3886108398438	139.4046173095703	1624.3095703125	879.4450073242188	296.5191040039062	1579.276977539062	765.6842651367188	374.7677917480469	966.5191650390625	819.7359619140625	15.50538539886475	964.3551025390625	803.450439453125	66.21272277832031	977.8010864257812	940.336181640625	329.119384765625	968.7940063476562	933.2791748046875	344.4942016601562	474.5993041992188	862.7996215820312	358.7089233398438	617.4082641601562	858.088623046875	306.0755004882812	41.62372207641602	761.78271484375	337.4435119628906	243.0960845947266	812.96240234375	230.7593688964844	40.58609771728516	974.5902099609375	205.7496337890625	44.4389762878418	892.3269653320312	310.8012390136719	40.00447463989258	889.1798706054688	251.6079864501953	39.22579956054688	720.4840087890625	32.87874221801758	474.5701599121094	863.4423217773438	10.57570266723633	738.5330810546875	887.9318237304688	57.46495819091797	54.88774871826172	791.875	43.86608123779297	347.83251953125	866.9202270507812	108.6959075927734	39.14458847045898	975.1841430664062	143.5966033935547	42.41686248779297	901.0272216796875	45.96318435668945	46.19070434570312	877.4397583007812	115.4738235473633	42.22268676757812	723.1171875	
457	4.56	133.3815460205078	984.5126953125	726.0490112304688	264.610595703125	976.2752075195312	727.4169311523438	198.5430297851562	1054.325927734375	723.9633178710938	184.9274444580078	1219.5654296875	957.0194091796875	206.3169860839844	1158.03369140625	711.3982543945312	217.5559387207031	1408.18115234375	741.49951171875	191.9389953613281	1335.412841796875	900.4931030273438	148.1535034179688	1262.884887695312	695.783203125	320.6363830566406	1368.449462890625	742.049560546875	358.539794921875	1388.509155273438	833.1312866210938	432.6044616699219	1273.10107421875	834.3436279296875	454.3935546875	1081.604614257812	891.227783203125	406.3753662109375	1050.64794921875	827.491943359375	389.6899719238281	891.5723266601562	1018.284240722656	461.7767944335938	868.9281005859375	984.80908203125	459.2561950683594	983.4711303710938	930.7517700195312	389.4032592773438	716.1036376953125	1054.89599609375	449.4318237304688	788.6116943359375	1015.570617675781	404.4093322753906	801.1470336914062	1058.84912109375	53.58937454223633	1393.75927734375	784.3361206054688	-6.495933532714844	1328.526123046875	770.37548828125	-65.99028778076172	1073.776000976562	820.2562866210938	25.68205070495605	1053.290405273438	803.2228393554688	-56.84898376464844	890.1763305664062	992.2184448242188	-118.2208251953125	875.0711669921875	951.1372680664062	-86.68681335449219	1016.862426757812	858.4609985351562	-71.47959136962891	719.9791870117188	1024.568603515625	-83.63394165039062	791.978515625	1030.850219726562	-124.3218612670898	789.0941162109375	974.265380859375	136.2503662109375	1589.728271484375	749.813720703125	258.6690673828125	1619.8740234375	905.1430053710938	139.4626159667969	1624.384765625	880.4396362304688	296.235107421875	1579.034912109375	766.3838500976562	373.988037109375	966.4312133789062	820.1474609375	14.7785530090332	964.4361572265625	804.0624389648438	65.59735107421875	977.6439208984375	941.0067138671875	328.52587890625	968.69580078125	933.7821655273438	344.3308715820312	474.5824279785156	862.2874145507812	358.4983825683594	617.365478515625	857.7842407226562	306.1054992675781	41.53021621704102	761.6998291015625	337.4443359375	243.1145324707031	812.5708618164062	230.7942352294922	40.62705230712891	974.5352783203125	205.7595062255859	44.55498886108398	892.3410034179688	310.8313293457031	39.99333572387695	889.1497192382812	251.6346130371094	39.11862182617188	720.4522094726562	32.37022018432617	474.6348266601562	861.57373046875	10.16909503936768	738.39208984375	887.5765380859375	57.49203109741211	54.7890625	791.7843627929688	43.44152069091797	347.9131469726562	865.380615234375	108.7400588989258	39.18412017822266	975.0934448242188	143.6357421875	42.41315841674805	900.9807739257812	45.99175262451172	46.19018173217773	877.3909301757812	115.4552459716797	42.01935577392578	723.0478515625	
458	4.57	132.6201019287109	984.6298828125	726.6170043945312	263.8869934082031	976.3018188476562	727.8327026367188	197.8986663818359	1054.286499023438	724.5458374023438	184.5636596679688	1219.539916992188	958.1925048828125	205.6075439453125	1158.030639648438	712.0631103515625	216.898193359375	1408.155395507812	742.1729736328125	191.3635101318359	1335.270751953125	901.2188720703125	147.4337005615234	1262.859985351562	696.5337524414062	320.0723876953125	1368.3388671875	742.6962890625	358.0477600097656	1388.326171875	833.7675170898438	432.0823669433594	1272.835815429688	834.7774658203125	453.7824096679688	1081.166625976562	891.10302734375	405.5212097167969	1050.45068359375	827.3552856445312	389.2775268554688	889.9736938476562	1016.6591796875	461.3585510253906	867.7681884765625	982.9727172851562	458.6756591796875	982.7394409179688	929.948974609375	389.2056579589844	714.0635375976562	1051.269653320312	449.1359252929688	787.0856323242188	1012.857727050781	404.0431518554688	799.1035766601562	1056.248413085938	52.96949768066406	1393.761962890625	785.1909790039062	-7.081237316131592	1328.568115234375	771.3590087890625	-67.04345703125	1073.9912109375	822.1470947265625	24.56857490539551	1053.22900390625	805.0257568359375	-57.46442413330078	891.738525390625	995.6358032226562	-119.0201187133789	876.2615966796875	954.64404296875	-87.65847015380859	1017.290710449219	860.8113403320312	-72.21795654296875	721.6748046875	1029.550170898438	-84.33851623535156	794.0328979492188	1035.2568359375	-125.1621017456055	790.450439453125	978.7635498046875	135.9480133056641	1589.909423828125	750.7547607421875	258.6701049804688	1619.603271484375	905.884033203125	139.5058441162109	1624.441650390625	881.4056396484375	295.9618225097656	1578.812866210938	767.0657348632812	373.2021484375	966.3471069335938	820.4719848632812	14.13593006134033	964.517822265625	804.7603149414062	65.01040649414062	977.4494018554688	941.65673828125	327.9999694824219	968.6021728515625	934.2251586914062	344.1603698730469	474.5583190917969	861.8438720703125	358.3039855957031	617.3237915039062	857.5118408203125	306.1281127929688	41.4528694152832	761.6251831054688	337.4329528808594	243.1346740722656	812.235595703125	230.8240661621094	40.66200256347656	974.4923706054688	205.7633666992188	44.62871551513672	892.3421630859375	310.8651428222656	39.98614501953125	889.1193237304688	251.6600189208984	39.02104187011719	720.4237060546875	31.84101676940918	474.7177429199219	859.7907104492188	9.761111259460449	738.2708129882812	887.2573852539062	57.53823852539062	54.68328475952148	791.7254638671875	42.99781799316406	348.0220336914062	863.8872680664062	108.7848968505859	39.23012924194336	974.9962768554688	143.6660461425781	42.42287063598633	900.934326171875	45.99682998657227	46.1876220703125	877.3384399414062	115.4195861816406	41.85143280029297	722.9810180664062	
459	4.58	131.8629913330078	984.7989501953125	727.1878051757812	263.1555786132812	976.3560180664062	728.2029418945312	197.2388305664062	1054.240844726562	725.1213989257812	184.2879791259766	1219.517578125	959.4000854492188	204.8792877197266	1158.019897460938	712.685302734375	216.2246246337891	1408.117309570312	742.7813110351562	190.8351287841797	1335.146728515625	901.9043579101562	146.7060699462891	1262.830810546875	697.2630004882812	319.4912109375	1368.231689453125	743.2639770507812	357.5745544433594	1388.1552734375	834.3097534179688	431.5411987304688	1272.579956054688	835.1206665039062	453.1411743164062	1080.752197265625	890.9520263671875	404.5736694335938	1050.237915039062	827.2415771484375	388.889404296875	888.4300537109375	1015.047424316406	460.930419921875	866.6656494140625	981.1311645507812	458.0816955566406	982.0419921875	929.14404296875	389.0999755859375	712.1113891601562	1047.72607421875	448.8538818359375	785.62939453125	1010.174194335938	403.7303771972656	797.1364135742188	1053.682495117188	52.3585090637207	1393.759033203125	786.0355224609375	-7.672607421875	1328.61181640625	772.3403930664062	-68.07371520996094	1074.215698242188	823.9552612304688	23.4879207611084	1053.190185546875	806.7420043945312	-58.10758590698242	893.1652221679688	998.8677978515625	-119.8224105834961	877.39306640625	957.9308471679688	-88.59356689453125	1017.7109375	863.04638671875	-73.10567474365234	723.2998046875	1034.210205078125	-85.12704467773438	795.932861328125	1039.416381835938	-126.0262451171875	791.7386474609375	983.0084228515625	135.6488342285156	1590.104614257812	751.6597290039062	258.6742858886719	1619.320434570312	906.6038208007812	139.5361328125	1624.488891601562	882.3470458984375	295.6912231445312	1578.616455078125	767.7194213867188	372.431640625	966.2777099609375	820.7230834960938	13.58597469329834	964.6185913085938	805.5400390625	64.46237945556641	977.2437744140625	942.2864990234375	327.54248046875	968.507080078125	934.5988159179688	343.9854736328125	474.5325927734375	861.4576416015625	358.1124267578125	617.2872314453125	857.267333984375	306.1441040039062	41.39413833618164	761.5606689453125	337.4046936035156	243.1618347167969	811.95166015625	230.8490600585938	40.69217300415039	974.4602661132812	205.7599639892578	44.66176605224609	892.3292846679688	310.9006042480469	39.98210144042969	889.0895385742188	251.6800231933594	38.9359016418457	720.3988037109375	31.28375244140625	474.8165588378906	858.0993041992188	9.333889961242676	738.1837158203125	886.9855346679688	57.58846664428711	54.56636047363281	791.6895751953125	42.53163528442383	348.1610717773438	862.4447631835938	108.8280258178711	39.28449249267578	974.8941650390625	143.6824493408203	42.4477424621582	900.886474609375	45.9752082824707	46.18193817138672	877.2825317382812	115.3661651611328	41.71276473999023	722.9191284179688	
